<?xml version="1.0" encoding="utf-8"?>
<!-- Generator: Adobe Illustrator 19.2.0, SVG Export Plug-In . SVG Version: 6.00 Build 0)  -->
<svg version="1.1" id="icon-cards-sprite" xmlns="http://www.w3.org/2000/svg" xmlns:xlink="http://www.w3.org/1999/xlink" x="0px"
	 y="0px" viewBox="0 0 32 96" style="enable-background:new 0 0 32 96;" xml:space="preserve">
<style type="text/css">
	.st0{enable-background:new    ;}
	.st1{fill:#2C97D3;}
</style>
<g id="icon-clock" class="st0">
	<path class="st1" d="M15.9,25.1c-4.7,0-8.6-3.8-8.6-8.6S11.2,8,15.9,8c4.7,0,8.6,3.8,8.6,8.6S20.7,25.1,15.9,25.1z M15.9,10.5
		c-3.4,0-6.1,2.7-6.1,6.1s2.7,6.1,6.1,6.1s6.1-2.7,6.1-6.1S19.3,10.5,15.9,10.5z M17.3,17.6c0,0.2-0.2,0.4-0.4,0.4h-3.6
		c-0.2,0-0.4-0.2-0.4-0.4v-0.7c0-0.2,0.2-0.4,0.4-0.4h2.5v-3.9c0-0.2,0.2-0.4,0.4-0.4H17c0.2,0,0.4,0.2,0.4,0.4V17.6z"/>
</g>
<g id="icon-place" class="st0">
	<path class="st1" d="M21.3,46.9l-4.1,8.6c-0.2,0.5-0.7,0.8-1.3,0.8s-1-0.3-1.3-0.8l-4.1-8.6c-0.3-0.6-0.4-1.3-0.4-2
		c0-3.2,2.6-5.7,5.7-5.7s5.7,2.6,5.7,5.7C21.6,45.5,21.6,46.2,21.3,46.9z M15.9,42c-1.6,0-2.9,1.3-2.9,2.9s1.3,2.9,2.9,2.9
		c1.6,0,2.9-1.3,2.9-2.9S17.5,42,15.9,42z"/>
</g>
<g id="icon-dolar" class="st0">
	<path class="st1" d="M17.1,86.8v2c0,0.2-0.2,0.4-0.4,0.4h-1.5c-0.2,0-0.4-0.2-0.4-0.4v-2c-2.6-0.4-4-1.9-4.1-2
		c-0.1-0.1-0.1-0.3,0-0.5l1.2-1.5c0.1-0.1,0.2-0.1,0.3-0.1c0.1,0,0.2,0,0.3,0.1c0,0,1.6,1.5,3.6,1.5c1.1,0,2.3-0.6,2.3-1.8
		c0-1.1-1.3-1.6-2.8-2.2c-2-0.8-4.5-1.8-4.5-4.6c0-2.1,1.6-3.8,3.9-4.2v-2c0-0.2,0.2-0.4,0.4-0.4h1.5c0.2,0,0.4,0.2,0.4,0.4v2
		c2.3,0.3,3.5,1.5,3.5,1.5c0.1,0.1,0.1,0.3,0.1,0.4L19.8,75c-0.1,0.1-0.1,0.2-0.3,0.2c-0.1,0-0.2,0-0.3-0.1c0,0-1.4-1.2-3-1.2
		c-1.4,0-2.4,0.7-2.4,1.7c0,1.2,1.4,1.7,2.9,2.3c2.1,0.8,4.4,1.7,4.4,4.4C21.1,84.7,19.5,86.5,17.1,86.8z"/>
</g>
</svg>
