<?xml version="1.0" encoding="utf-8"?>
<!-- Generator: Adobe Illustrator 19.2.0, SVG Export Plug-In . SVG Version: 6.00 Build 0)  -->
<svg version="1.1" id="icon-filter" xmlns="http://www.w3.org/2000/svg" xmlns:xlink="http://www.w3.org/1999/xlink" x="0px"
	 y="0px" viewBox="0 0 32 32" style="enable-background:new 0 0 32 32;" xml:space="preserve">
<g id="icon-filter_1_">
	<path fill="#fff" d="M27.5,5.6L19,14.1v12.8c0,0.4-0.3,0.8-0.7,1C18.2,28,18.1,28,17.9,28c-0.3,0-0.6-0.1-0.8-0.3l-4.4-4.4
		c-0.2-0.2-0.3-0.5-0.3-0.8v-8.4L3.9,5.6C3.6,5.3,3.5,4.8,3.7,4.4c0.2-0.4,0.6-0.7,1-0.7h22.1c0.4,0,0.8,0.3,1,0.7
		C27.9,4.8,27.9,5.3,27.5,5.6z"/>
</g>
</svg>
