<?xml version="1.0" encoding="utf-8"?>
<!-- Generator: Adobe Illustrator 16.0.0, SVG Export Plug-In . SVG Version: 6.00 Build 0)  -->
<!DOCTYPE svg PUBLIC "-//W3C//DTD SVG 1.1 Tiny//EN" "http://www.w3.org/Graphics/SVG/1.1/DTD/svg11-tiny.dtd">
<svg version="1.1" baseProfile="tiny" id="Layer_1" xmlns="http://www.w3.org/2000/svg" xmlns:xlink="http://www.w3.org/1999/xlink"
	 x="0px" y="0px" width="32px" height="32px" viewBox="0 0 32 32" xml:space="preserve">
<g>
	<path fill="#2C97D3" d="M29.942,10.771c0,0.242-0.098,0.456-0.276,0.641L16.646,24.43c-0.188,0.186-0.401,0.279-0.644,0.279
		c-0.242,0-0.456-0.094-0.642-0.279L2.344,11.413c-0.186-0.185-0.279-0.399-0.279-0.641c0-0.243,0.094-0.457,0.279-0.644L3.741,8.73
		c0.186-0.185,0.399-0.279,0.642-0.279S4.839,8.545,5.026,8.73l10.976,10.979L26.985,8.73c0.179-0.185,0.398-0.279,0.635-0.279
		c0.244,0,0.457,0.094,0.644,0.279l1.402,1.397C29.845,10.315,29.942,10.529,29.942,10.771z"/>
</g>
</svg>
