<?xml version="1.0" encoding="utf-8"?>
<!-- Generator: Adobe Illustrator 16.0.0, SVG Export Plug-In . SVG Version: 6.00 Build 0)  -->
<!DOCTYPE svg PUBLIC "-//W3C//DTD SVG 1.1 Tiny//EN" "http://www.w3.org/Graphics/SVG/1.1/DTD/svg11-tiny.dtd">
<svg version="1.1" baseProfile="tiny" id="icon-calendar"
	 xmlns="http://www.w3.org/2000/svg" xmlns:xlink="http://www.w3.org/1999/xlink" x="0px" y="0px" width="32px" height="32px"
	 viewBox="0 0 32 32" xml:space="preserve">
<g id="icon-calendar_1_">
	<path fill="#2D97D3" d="M29.122,8.067v19.307c0,0.522-0.191,0.976-0.573,1.357c-0.383,0.382-0.835,0.573-1.357,0.573H5.953
		c-0.523,0-0.976-0.191-1.357-0.573c-0.382-0.382-0.573-0.835-0.573-1.357V8.067c0-0.523,0.191-0.975,0.573-1.357
		C4.978,6.327,5.43,6.136,5.953,6.136h1.931V4.688c0-0.664,0.236-1.231,0.709-1.704s1.041-0.709,1.705-0.709h0.965
		c0.664,0,1.231,0.236,1.705,0.709c0.472,0.473,0.709,1.041,0.709,1.704v1.448h5.792V4.688c0-0.664,0.236-1.231,0.709-1.704
		s1.041-0.709,1.705-0.709h0.965c0.664,0,1.232,0.236,1.705,0.709s0.709,1.041,0.709,1.704v1.448h1.931
		c0.522,0,0.975,0.191,1.357,0.573C28.931,7.092,29.122,7.544,29.122,8.067z M5.953,16.272h4.344v-4.344H5.953V16.272z
		 M5.953,22.064h4.344v-4.826H5.953V22.064z M5.953,27.374h4.344V23.03H5.953V27.374z M11.745,9.032V4.688
		c0-0.13-0.048-0.244-0.143-0.339c-0.096-0.095-0.209-0.143-0.339-0.143h-0.965c-0.131,0-0.244,0.048-0.339,0.143
		C9.862,4.444,9.814,4.558,9.814,4.688v4.344c0,0.131,0.048,0.244,0.144,0.339c0.095,0.096,0.208,0.144,0.339,0.144h0.965
		c0.13,0,0.244-0.048,0.339-0.144C11.697,9.276,11.745,9.163,11.745,9.032z M11.263,16.272h4.827v-4.344h-4.827V16.272z
		 M11.263,22.064h4.827v-4.826h-4.827V22.064z M11.263,27.374h4.827V23.03h-4.827V27.374z M17.055,16.272h4.827v-4.344h-4.827
		V16.272z M17.055,22.064h4.827v-4.826h-4.827V22.064z M17.055,27.374h4.827V23.03h-4.827V27.374z M23.33,9.032V4.688
		c0-0.13-0.048-0.244-0.144-0.339c-0.096-0.095-0.209-0.143-0.34-0.143h-0.965c-0.131,0-0.244,0.048-0.34,0.143
		c-0.096,0.096-0.143,0.209-0.143,0.339v4.344c0,0.131,0.047,0.244,0.143,0.339c0.096,0.096,0.209,0.144,0.34,0.144h0.965
		c0.131,0,0.244-0.048,0.34-0.144C23.282,9.276,23.33,9.163,23.33,9.032z M22.847,16.272h4.345v-4.344h-4.345V16.272z
		 M22.847,22.064h4.345v-4.826h-4.345V22.064z M22.847,27.374h4.345V23.03h-4.345V27.374z"/>
</g>
</svg>
