<?xml version="1.0" encoding="utf-8"?>
<!-- Generator: Adobe Illustrator 19.2.0, SVG Export Plug-In . SVG Version: 6.00 Build 0)  -->
<svg version="1.1" id="sprite" xmlns="http://www.w3.org/2000/svg" xmlns:xlink="http://www.w3.org/1999/xlink" x="0px" y="0px"
	 viewBox="0 0 64 128" style="enable-background:new 0 0 64 128;" xml:space="preserve">
<style type="text/css">
	.st0{fill:#FFFFFF;}
	.st1{fill:#00579B;}
</style>
<g id="icon-vk">
	<path class="st0" d="M29.8,11.1c0.2,0.6-0.5,2-2.2,4.3c-0.2,0.3-0.5,0.7-0.9,1.2c-0.8,1-1.2,1.6-1.3,1.9c-0.2,0.4-0.1,0.8,0.2,1.2
		c0.2,0.2,0.6,0.6,1.2,1.2h0l0,0l0,0l0,0c1.4,1.3,2.3,2.3,2.8,3.2c0,0,0.1,0.1,0.1,0.2c0,0.1,0.1,0.2,0.1,0.4c0,0.2,0,0.3,0,0.5
		c0,0.1-0.2,0.3-0.4,0.4c-0.2,0.1-0.5,0.2-0.9,0.2l-3.7,0.1c-0.2,0-0.5,0-0.8-0.1c-0.3-0.1-0.6-0.2-0.8-0.3L23,25.3
		c-0.3-0.2-0.6-0.5-1-0.9c-0.4-0.4-0.7-0.8-1-1.1c-0.3-0.3-0.6-0.6-0.9-0.8c-0.3-0.2-0.6-0.3-0.8-0.2c0,0-0.1,0-0.1,0.1
		c0,0-0.1,0.1-0.2,0.2c-0.1,0.1-0.2,0.3-0.3,0.4c-0.1,0.2-0.2,0.4-0.2,0.8c-0.1,0.3-0.1,0.7-0.1,1.1c0,0.1,0,0.3-0.1,0.4
		s-0.1,0.2-0.1,0.3L18,25.5c-0.2,0.2-0.4,0.3-0.8,0.3h-1.7c-0.7,0-1.4,0-2.1-0.2c-0.7-0.2-1.4-0.5-1.9-0.8c-0.5-0.3-1-0.6-1.5-1
		c-0.4-0.3-0.8-0.6-1-0.8l-0.4-0.3c-0.1-0.1-0.2-0.2-0.4-0.4c-0.2-0.2-0.5-0.6-1-1.3s-1-1.4-1.5-2.2s-1.1-1.8-1.8-3.1
		S2.6,13.1,2,11.7C2,11.6,2,11.4,2,11.3s0-0.2,0-0.2L2.1,11c0.1-0.2,0.4-0.3,0.8-0.3l4,0c0.1,0,0.2,0.1,0.3,0.1
		c0.1,0,0.2,0.1,0.2,0.1l0.1,0c0.2,0.1,0.3,0.3,0.3,0.5c0.2,0.5,0.4,1,0.7,1.5c0.3,0.5,0.4,0.9,0.6,1.2l0.2,0.4
		c0.3,0.6,0.6,1.1,0.8,1.5c0.3,0.4,0.5,0.8,0.7,1s0.4,0.4,0.6,0.6c0.2,0.1,0.4,0.2,0.5,0.2s0.3,0,0.4-0.1c0,0,0,0,0.1-0.1
		c0,0,0.1-0.1,0.2-0.3c0.1-0.2,0.2-0.4,0.2-0.7c0-0.3,0.1-0.7,0.1-1.2c0-0.5,0-1.1,0-1.8c0-0.4-0.1-0.7-0.1-1.1
		c-0.1-0.3-0.1-0.5-0.2-0.7l-0.1-0.2c-0.2-0.3-0.7-0.5-1.2-0.6c-0.1,0-0.1-0.1,0.1-0.3c0.2-0.2,0.3-0.3,0.6-0.4
		c0.5-0.3,1.7-0.4,3.5-0.3c0.8,0,1.4,0.1,2,0.2c0.2,0,0.4,0.1,0.5,0.2c0.1,0.1,0.2,0.2,0.3,0.3c0.1,0.1,0.1,0.3,0.2,0.5
		c0,0.2,0.1,0.4,0.1,0.7s0,0.5,0,0.8s0,0.6,0,1c0,0.4,0,0.8,0,1.2c0,0.1,0,0.3,0,0.6c0,0.3,0,0.5,0,0.7c0,0.2,0,0.4,0.1,0.6
		c0,0.2,0.1,0.4,0.2,0.6s0.2,0.3,0.3,0.4c0.1,0,0.2,0,0.2,0.1c0.1,0,0.2,0,0.4-0.2c0.2-0.1,0.4-0.3,0.6-0.5s0.5-0.5,0.8-1
		c0.3-0.4,0.6-1,1-1.6c0.6-1,1.1-2.1,1.6-3.3c0-0.1,0.1-0.2,0.1-0.3c0.1-0.1,0.1-0.1,0.2-0.2l0.1,0c0,0,0,0,0.1,0s0.1,0,0.2,0
		c0.1,0,0.2,0,0.3,0l4.2,0c0.4,0,0.7,0,0.9,0c0.2,0.1,0.4,0.2,0.5,0.2L29.8,11.1z"/>
</g>
<g id="icon-youtube">
	<path class="st0" d="M29.9,46c0,0.6,0,1.3,0,2.3s0,1.8,0,2.3s-0.1,1.3-0.1,2.1s-0.2,1.6-0.4,2.3c-0.2,0.8-0.5,1.4-1.1,1.9
		s-1.2,0.8-1.9,0.9c-2.3,0.3-5.8,0.4-10.5,0.4s-8.2-0.1-10.5-0.4C4.7,57.9,4,57.6,3.5,57c-0.6-0.5-0.9-1.2-1.1-1.9
		c-0.1-0.7-0.3-1.4-0.3-2.3s-0.1-1.6-0.1-2.1c0-0.6,0-1.3,0-2.3s0-1.8,0-2.3c0-0.6,0.1-1.3,0.1-2.1s0.2-1.6,0.4-2.3
		c0.2-0.8,0.5-1.4,1.1-1.9s1.2-0.8,1.9-0.9c2.3-0.3,5.8-0.4,10.5-0.4s8.2,0.1,10.5,0.4c0.7,0.1,1.4,0.4,1.9,0.9
		c0.6,0.5,0.9,1.2,1.1,1.9c0.1,0.7,0.3,1.4,0.3,2.3S29.9,45.4,29.9,46z M21.9,48.3c0-0.4-0.2-0.7-0.5-0.8l-8-5c-0.3-0.2-0.7-0.2-1,0
		c-0.3,0.2-0.5,0.5-0.5,0.9v10c0,0.4,0.2,0.7,0.5,0.9c0.2,0.1,0.3,0.1,0.5,0.1c0.2,0,0.4-0.1,0.5-0.2l8-5
		C21.7,49,21.9,48.7,21.9,48.3z"/>
</g>
<g id="icon-twitter">
	<path class="st0" d="M28.9,72.7c-0.7,1.1-1.6,2-2.7,2.8c0,0.2,0,0.4,0,0.7c0,1.4-0.2,2.9-0.6,4.3c-0.4,1.4-1.1,2.8-1.9,4.1
		s-1.9,2.5-3,3.5c-1.2,1-2.6,1.8-4.3,2.4c-1.7,0.6-3.4,0.9-5.3,0.9c-3,0-5.7-0.8-8.2-2.4C3.3,89,3.7,89,4.2,89
		c2.5,0,4.7-0.8,6.6-2.3c-1.2,0-2.2-0.4-3.1-1.1S6.1,84.1,5.8,83c0.4,0.1,0.7,0.1,1,0.1c0.5,0,0.9-0.1,1.4-0.2
		C7,82.7,6,82.1,5.2,81.1S3.9,79,3.9,77.7v-0.1c0.7,0.4,1.5,0.6,2.4,0.7c-0.7-0.5-1.3-1.1-1.7-1.9S4,74.8,4,73.9
		c0-1,0.2-1.9,0.7-2.7c1.3,1.6,3,2.9,4.9,3.9c1.9,1,3.9,1.5,6.1,1.6c-0.1-0.4-0.1-0.8-0.1-1.2c0-1.5,0.5-2.7,1.6-3.8
		s2.3-1.6,3.8-1.6c1.5,0,2.8,0.6,3.9,1.7c1.2-0.2,2.3-0.7,3.4-1.3c-0.4,1.3-1.2,2.2-2.3,2.9C26.8,73.4,27.9,73.2,28.9,72.7z"/>
</g>
<g id="icon-vk-hover">
	<path class="st1" d="M61.9,11.1c0.2,0.6-0.5,2-2.2,4.3c-0.2,0.3-0.5,0.7-0.9,1.2c-0.8,1-1.2,1.6-1.3,1.9c-0.2,0.4-0.1,0.8,0.2,1.2
		c0.2,0.2,0.6,0.6,1.2,1.2h0l0,0l0,0l0,0c1.4,1.3,2.3,2.3,2.8,3.2c0,0,0.1,0.1,0.1,0.2c0,0.1,0.1,0.2,0.1,0.4c0,0.2,0,0.3,0,0.5
		c0,0.1-0.2,0.3-0.4,0.4s-0.5,0.2-0.9,0.2L57,25.9c-0.2,0-0.5,0-0.8-0.1c-0.3-0.1-0.6-0.2-0.8-0.3l-0.3-0.2c-0.3-0.2-0.6-0.5-1-0.9
		c-0.4-0.4-0.7-0.8-1-1.1c-0.3-0.3-0.6-0.6-0.9-0.8c-0.3-0.2-0.6-0.3-0.8-0.2c0,0-0.1,0-0.1,0.1c0,0-0.1,0.1-0.2,0.2
		c-0.1,0.1-0.2,0.3-0.3,0.4c-0.1,0.2-0.2,0.4-0.2,0.8c-0.1,0.3-0.1,0.7-0.1,1.1c0,0.1,0,0.3-0.1,0.4s-0.1,0.2-0.1,0.3l-0.1,0.1
		c-0.2,0.2-0.4,0.3-0.8,0.3h-1.7c-0.7,0-1.4,0-2.1-0.2c-0.7-0.2-1.4-0.5-1.9-0.8c-0.5-0.3-1-0.6-1.5-1c-0.4-0.3-0.8-0.6-1-0.8
		l-0.4-0.3c-0.1-0.1-0.2-0.2-0.4-0.4c-0.2-0.2-0.5-0.6-1-1.3c-0.5-0.7-1-1.4-1.5-2.2s-1.1-1.8-1.8-3.1s-1.3-2.6-1.9-3.9
		c-0.1-0.2-0.1-0.3-0.1-0.4s0-0.2,0-0.2l0.1-0.1c0.1-0.2,0.4-0.3,0.8-0.3l4,0c0.1,0,0.2,0.1,0.3,0.1c0.1,0,0.2,0.1,0.2,0.1l0.1,0
		c0.2,0.1,0.3,0.3,0.3,0.5c0.2,0.5,0.4,1,0.7,1.5c0.3,0.5,0.4,0.9,0.6,1.2l0.2,0.4c0.3,0.6,0.6,1.1,0.8,1.5c0.3,0.4,0.5,0.8,0.7,1
		c0.2,0.2,0.4,0.4,0.6,0.6c0.2,0.1,0.4,0.2,0.5,0.2s0.3,0,0.4-0.1c0,0,0,0,0.1-0.1s0.1-0.1,0.2-0.3c0.1-0.2,0.2-0.4,0.2-0.7
		S45,16,45,15.5c0-0.5,0-1.1,0-1.8c0-0.4-0.1-0.7-0.1-1.1c-0.1-0.3-0.1-0.5-0.2-0.7l-0.1-0.2c-0.2-0.3-0.7-0.5-1.2-0.6
		c-0.1,0-0.1-0.1,0.1-0.3c0.2-0.2,0.3-0.3,0.6-0.4c0.5-0.3,1.7-0.4,3.5-0.3c0.8,0,1.4,0.1,2,0.2c0.2,0,0.4,0.1,0.5,0.2
		c0.1,0.1,0.2,0.2,0.3,0.3c0.1,0.1,0.1,0.3,0.2,0.5c0,0.2,0.1,0.4,0.1,0.7s0,0.5,0,0.8s0,0.6,0,1c0,0.4,0,0.8,0,1.2
		c0,0.1,0,0.3,0,0.6c0,0.3,0,0.5,0,0.7c0,0.2,0,0.4,0.1,0.6c0,0.2,0.1,0.4,0.2,0.6s0.2,0.3,0.3,0.4c0.1,0,0.2,0,0.2,0.1
		c0.1,0,0.2,0,0.4-0.2c0.2-0.1,0.3-0.3,0.6-0.5s0.5-0.5,0.8-1c0.3-0.4,0.6-1,1-1.6c0.6-1,1.1-2.1,1.6-3.3c0-0.1,0.1-0.2,0.1-0.3
		c0.1-0.1,0.1-0.1,0.2-0.2l0.1,0c0,0,0,0,0.1,0s0.1,0,0.2,0c0.1,0,0.2,0,0.3,0l4.2,0c0.4,0,0.7,0,0.9,0c0.2,0.1,0.4,0.2,0.5,0.2
		L61.9,11.1z"/>
</g>
<g id="icon-youtube-hover">
	<path class="st1" d="M62,46c0,0.6,0,1.3,0,2.3s0,1.8,0,2.3s-0.1,1.3-0.1,2.1s-0.2,1.6-0.4,2.3c-0.2,0.8-0.5,1.4-1.1,1.9
		c-0.6,0.5-1.2,0.8-1.9,0.9c-2.3,0.3-5.8,0.4-10.5,0.4s-8.2-0.1-10.5-0.4c-0.7-0.1-1.4-0.4-1.9-0.9s-0.9-1.2-1.1-1.9
		c-0.1-0.7-0.3-1.4-0.3-2.3S34,51.2,34,50.7c0-0.6,0-1.3,0-2.3s0-1.8,0-2.3c0-0.6,0.1-1.3,0.1-2.1s0.2-1.6,0.4-2.3
		c0.2-0.8,0.5-1.4,1.1-1.9c0.6-0.5,1.2-0.8,1.9-0.9c2.3-0.3,5.8-0.4,10.5-0.4s8.2,0.1,10.5,0.4c0.7,0.1,1.4,0.4,1.9,0.9
		c0.6,0.5,0.9,1.2,1.1,1.9c0.1,0.7,0.3,1.4,0.3,2.3S62,45.4,62,46z M54,48.3c0-0.4-0.2-0.7-0.5-0.8l-8-5c-0.3-0.2-0.7-0.2-1,0
		c-0.3,0.2-0.5,0.5-0.5,0.9v10c0,0.4,0.2,0.7,0.5,0.9c0.2,0.1,0.3,0.1,0.5,0.1c0.2,0,0.4-0.1,0.5-0.2l8-5C53.8,49,54,48.7,54,48.3z"
		/>
</g>
<g id="icon-twitter-hover">
	<path class="st1" d="M61,72.7c-0.7,1.1-1.6,2-2.7,2.8c0,0.2,0,0.4,0,0.7c0,1.4-0.2,2.9-0.6,4.3c-0.4,1.4-1.1,2.8-1.9,4.1
		S54,87,52.8,88s-2.6,1.8-4.3,2.4c-1.7,0.6-3.4,0.9-5.3,0.9c-3,0-5.7-0.8-8.2-2.4c0.4,0,0.8,0.1,1.3,0.1c2.5,0,4.7-0.8,6.6-2.3
		c-1.2,0-2.2-0.4-3.1-1.1c-0.9-0.7-1.5-1.6-1.9-2.6c0.4,0.1,0.7,0.1,1,0.1c0.5,0,0.9-0.1,1.4-0.2c-1.2-0.3-2.3-0.9-3.1-1.8
		s-1.2-2.1-1.2-3.4v-0.1c0.7,0.4,1.6,0.6,2.4,0.7c-0.7-0.5-1.3-1.1-1.7-1.9s-0.6-1.6-0.6-2.5c0-1,0.2-1.9,0.7-2.7
		c1.3,1.6,2.9,2.9,4.9,3.9c1.9,1,3.9,1.5,6.1,1.6c-0.1-0.4-0.1-0.8-0.1-1.2c0-1.5,0.5-2.7,1.6-3.8s2.3-1.6,3.8-1.6
		c1.5,0,2.8,0.6,3.9,1.7c1.2-0.2,2.3-0.7,3.4-1.3c-0.4,1.3-1.2,2.2-2.3,2.9C59,73.4,60,73.2,61,72.7z"/>
</g>
<g>
	<path class="st1" d="M53.4,104.9h-2.1c-1.7,0-2,0.8-2,1.9v2.5h4l-0.5,4h-3.4v10.2h-4.1v-10.2h-3.4v-4h3.4v-2.9
		c0-3.4,2.1-5.3,5.1-5.3c1.5,0,2.7,0.1,3.1,0.2V104.9z"/>
</g>
<g>
	<path class="st0" d="M21.7,104.9h-2.1c-1.7,0-2,0.8-2,1.9v2.5h4l-0.5,4h-3.4v10.2h-4.1v-10.2h-3.4v-4h3.4v-2.9
		c0-3.4,2.1-5.3,5.1-5.3c1.5,0,2.7,0.1,3.1,0.2V104.9z"/>
</g>
</svg>
