<?xml version="1.0" encoding="utf-8"?>
<!-- Generator: Adobe Illustrator 16.0.0, SVG Export Plug-In . SVG Version: 6.00 Build 0)  -->
<!DOCTYPE svg PUBLIC "-//W3C//DTD SVG 1.1 Tiny//EN" "http://www.w3.org/Graphics/SVG/1.1/DTD/svg11-tiny.dtd">
<svg version="1.1" baseProfile="tiny" id="icon-menu"
	 xmlns="http://www.w3.org/2000/svg" xmlns:xlink="http://www.w3.org/1999/xlink" x="0px" y="0px" width="32px" height="32px"
	 viewBox="0 0 32 32" xml:space="preserve">
<g id="icon-menu_1_">
	<path fill="#2D97D3" d="M29.004,6.394v2.085c0,0.282-0.103,0.527-0.309,0.733c-0.207,0.207-0.451,0.309-0.732,0.309H5.029
		c-0.283,0-0.527-0.103-0.733-0.309C4.09,9.005,3.987,8.761,3.987,8.479V6.394c0-0.282,0.103-0.527,0.309-0.733
		c0.207-0.207,0.451-0.31,0.733-0.31h22.934c0.281,0,0.525,0.103,0.732,0.31C28.901,5.867,29.004,6.111,29.004,6.394z
		 M29.004,14.733v2.085c0,0.283-0.103,0.527-0.309,0.733c-0.207,0.206-0.451,0.31-0.732,0.31H5.029c-0.283,0-0.527-0.104-0.733-0.31
		c-0.206-0.206-0.309-0.45-0.309-0.733v-2.085c0-0.282,0.103-0.526,0.309-0.733c0.207-0.206,0.451-0.309,0.733-0.309h22.934
		c0.281,0,0.525,0.103,0.732,0.309C28.901,14.207,29.004,14.451,29.004,14.733z M29.004,23.072v2.085
		c0,0.282-0.103,0.527-0.309,0.732c-0.207,0.207-0.451,0.31-0.732,0.31H5.029c-0.283,0-0.527-0.103-0.733-0.31
		c-0.206-0.205-0.309-0.45-0.309-0.732v-2.085c0-0.282,0.103-0.527,0.309-0.732c0.207-0.207,0.451-0.31,0.733-0.31h22.934
		c0.281,0,0.525,0.103,0.732,0.31C28.901,22.545,29.004,22.79,29.004,23.072z"/>
</g>
</svg>
